HIERARCHY
ROOT hip
{
	OFFSET 0.000000 0.000000 0.000000 
	CHANNELS 6 Xposition Yposition Zposition Xrotation Zrotation Yrotation
	JOINT abdomen
	{
		OFFSET 0.000000 3.402643 0.000000 
		CHANNELS 3 Xrotation Zrotation Yrotation
		JOINT chest
		{
			OFFSET 0.000000 8.438565 -0.680529 
			CHANNELS 3 Xrotation Zrotation Yrotation
			JOINT neck
			{
				OFFSET 0.000000 10.207942 -0.272212 
				CHANNELS 3 Xrotation Zrotation Yrotation
				JOINT head
				{
					OFFSET 0.000000 3.130431 0.000000 
					CHANNELS 3 Xrotation Zrotation Yrotation
					End Site
					{
						OFFSET 0.000000 3.130435 0.000000 
					}
				}
			}
			JOINT lCollar
			{
				OFFSET 3.470700 6.669187 -0.816635 
				CHANNELS 3 Yrotation Zrotation Xrotation
				JOINT lShldr
				{
					OFFSET 3.198488 0.000000 0.000000 
					CHANNELS 3 Zrotation Yrotation Xrotation
					JOINT lForeArm
					{
						OFFSET 10.139888 0.000000 0.000000 
						CHANNELS 3 Yrotation Zrotation Xrotation
						JOINT lHand
						{
							OFFSET 8.370511 0.000000 0.000000 
							CHANNELS 3 Zrotation Yrotation Xrotation
							End Site
							{
								OFFSET 4.083176 0.000000 0.000000 
							}
						}
					}
				}
			}
			JOINT rCollar
			{
				OFFSET -3.470700 6.669187 -0.816635 
				CHANNELS 3 Yrotation Zrotation Xrotation
				JOINT rShldr
				{
					OFFSET -3.198488 0.000000 0.000000 
					CHANNELS 3 Zrotation Yrotation Xrotation
					JOINT rForeArm
					{
						OFFSET -10.139888 0.000000 0.000000 
						CHANNELS 3 Yrotation Zrotation Xrotation
						JOINT rHand
						{
							OFFSET -8.370511 0.000000 0.000000 
							CHANNELS 3 Zrotation Yrotation Xrotation
							End Site
							{
								OFFSET -4.083176 0.000000 0.000000 
							}
						}
					}
				}
			}
		}
	}
	JOINT lThigh
	{
		OFFSET 5.308129 -1.633274 1.361059 
		CHANNELS 3 Xrotation Zrotation Yrotation
		JOINT lShin
		{
			OFFSET -2.041588 -20.007561 0.000000 
			CHANNELS 3 Xrotation Zrotation Yrotation
			JOINT lFoot
			{
				OFFSET 0.000000 -19.190928 -1.224953 
				CHANNELS 3 Xrotation Yrotation Zrotation
				End Site
				{
					OFFSET 0.000000 -2.449906 4.627600 
				}
			}
		}
	}
	JOINT rThigh
	{
		OFFSET -5.308129 -1.633274 1.361059 
		CHANNELS 3 Xrotation Zrotation Yrotation
		JOINT rShin
		{
			OFFSET 2.041588 -20.007561 0.000000 
			CHANNELS 3 Xrotation Zrotation Yrotation
			JOINT rFoot
			{
				OFFSET 0.000000 -19.190928 -1.224953 
				CHANNELS 3 Xrotation Yrotation Zrotation
				End Site
				{
					OFFSET 0.000000 -2.449906 4.627600 
				}
			}
		}
	}
}
MOTION
Frames: 16
Frame Time: 0.033333
63.672142 45.956360 -375.143890 -11.528434 -3.712837 -7.075624 26.323429 -1.321141 4.021051 -20.839844 0.000000 0.000000 -10.120468 9.073966 -0.738989 -2.520846 -1.255050 0.218350 -4.754607 -0.109226 -0.002657 67.782402 -16.727594 -83.713860 -27.108438 10.008626 -59.609650 -37.889309 9.369994 -60.331261 4.754607 0.109226 -0.002676 -45.307243 -2.983325 -55.242619 82.029091 -20.720366 -16.233709 -33.654003 -7.665250 -16.783627 -17.007681 4.296149 -9.568048 -2.792209 7.068966 -2.546079 45.166325 12.401851 -16.329010 32.203609 -0.664234 0.804219 2.918711 12.485195 -1.548272 -14.694548 5.408026 -13.331347 
63.699562 45.012070 -372.104431 -10.880384 -2.589385 -9.775967 25.643799 -4.872871 4.192427 -20.839844 0.000000 0.000000 -10.144188 9.778607 -0.072393 -2.520846 -1.255050 0.218350 -4.754607 -0.109226 -0.002657 71.426788 -12.985390 -86.206779 -26.611366 12.317757 -60.272388 -35.227268 11.122417 -54.972881 4.754607 0.109226 -0.002676 -43.549690 0.760595 -60.367718 86.087440 -25.269102 -27.893089 -28.905323 -14.419861 -34.433044 -21.777342 0.694538 -10.340862 -2.041429 12.172201 -0.637468 44.765175 12.178516 -23.604349 32.773975 -4.735720 -3.484873 9.666327 14.137918 1.179247 -17.570679 8.507309 -13.062058 
63.593956 44.171860 -368.711090 -11.163403 -3.478015 -10.183314 25.613232 -4.012300 5.081326 -20.839844 0.000000 0.000000 -10.649412 9.529652 0.001950 -2.520846 -1.255050 0.218350 -4.754607 -0.109226 -0.002657 74.458038 -9.962067 -87.653419 -26.692381 14.472286 -54.287998 -26.764034 11.545161 -40.840816 4.754607 0.109226 -0.002676 -43.223244 -1.877816 -58.638691 85.195869 -25.009743 -41.979851 -26.571924 -14.859688 -55.059570 -18.579161 -0.290740 -26.610931 -5.594968 16.944386 -5.330886 59.147854 26.299967 -53.881638 38.847778 -3.837672 -2.722432 6.121047 12.007395 0.549720 -14.460612 7.511889 -9.614253 
63.343163 43.796173 -365.305573 -12.887593 -2.875053 -9.352588 26.470686 -4.427955 5.308549 -20.839844 0.000000 0.000000 -10.743562 8.468508 -0.616606 -2.520846 -1.255050 0.218350 -4.754607 -0.109226 -0.002657 76.179741 -6.402339 -82.879639 -27.954472 13.509755 -40.453194 -11.733795 10.063601 -23.411503 4.754607 0.109226 -0.002676 -44.122757 -2.135378 -56.497601 83.468712 -21.370337 -49.394646 -19.977188 -11.778236 -67.176041 -13.968801 -2.211157 -33.483677 -4.765163 14.631462 -6.566358 65.647964 32.344028 -62.603596 49.176250 -2.841868 -1.404514 -5.203259 8.414760 -1.365347 -3.581187 4.856629 -3.099224 
63.109123 43.800232 -361.759430 -15.958934 -0.873206 -9.056972 27.518877 -7.629459 5.446035 -20.839844 0.000000 0.000000 -9.457358 8.078034 -2.457597 -2.520846 -1.255050 0.218350 -4.754607 -0.109226 -0.002657 76.816956 -3.894655 -73.993423 -31.924910 9.709730 -22.806597 1.135558 10.658124 -9.997797 4.754607 0.109226 -0.002676 -43.072216 3.414191 -57.140919 83.739227 -17.426388 -48.569679 -9.944194 -11.199774 -68.020020 -5.323730 -8.818988 -28.245901 -5.527842 17.231558 -3.083079 53.949493 30.956860 -38.023140 54.707386 -4.150228 -3.362032 -5.373920 6.224380 -1.633928 9.236921 4.284327 3.550904 
63.033485 43.662140 -358.115784 -18.489410 1.028044 -8.927673 27.290939 -10.452312 5.343693 -20.839844 0.000000 0.000000 -7.612532 8.948395 -4.485500 -2.520846 -1.255050 0.218350 -4.754607 -0.109226 -0.002657 76.935677 -4.676280 -68.489273 -36.458843 5.335700 -6.558454 9.549736 11.901026 2.124063 4.754607 0.109226 -0.002676 -39.364063 13.872581 -59.345669 85.846695 -13.826039 -42.517117 -0.037030 -15.816336 -61.527527 5.634036 -15.410085 -58.239952 1.637684 26.902885 -13.185493 85.871269 50.911968 -75.219749 58.892056 -5.673901 -5.380605 -5.543541 4.762510 -0.888717 30.610996 4.839268 4.841218 
63.039070 43.581421 -354.551880 -19.843578 1.745367 -7.602111 26.719248 -9.578102 4.574107 -20.839844 0.000000 0.000000 -6.867553 9.186654 -4.482989 -2.520846 -1.255050 0.218350 -4.754607 -0.109226 -0.002657 76.004196 -5.980168 -64.894859 -38.625637 1.725443 3.717225 13.890093 13.680805 9.957796 4.754607 0.109226 -0.002676 -34.581944 26.003817 -61.271255 87.558563 -10.921737 -34.022591 7.509412 -23.235804 -51.466492 17.534969 -16.291706 -71.590446 0.212630 35.532787 -16.899389 107.059967 52.440098 -95.536400 60.887135 -5.918402 -5.648462 -5.542706 4.205575 -0.334104 51.788429 5.504680 3.340282 
63.086281 43.981979 -351.346863 -20.088957 2.540725 -6.172926 26.512300 -7.871706 3.496816 -20.839844 0.000000 0.000000 -7.299988 8.469514 -3.713217 -2.520846 -1.255050 0.218350 -4.754607 -0.109226 -0.002657 74.837364 -7.748353 -62.834072 -38.361172 -1.031371 10.320298 14.153708 14.126009 14.282065 4.754607 0.109226 -0.002676 -30.355423 32.569096 -59.826790 87.385216 -7.860400 -27.775356 12.258995 -27.008411 -43.954636 23.154161 -18.457140 -73.622208 2.574939 37.201824 -14.282097 106.446480 57.519543 -96.819359 46.931263 -8.291091 -7.106791 21.408422 3.960693 2.079158 47.121483 3.294546 2.204609 
63.095421 44.670898 -348.437897 -20.404444 4.037344 -4.351522 27.817629 -7.836969 1.310296 -20.839844 0.000000 0.000000 -8.485594 8.155824 -3.728119 -2.520846 -1.255050 0.218350 -4.754607 -0.109226 -0.002657 74.704697 -10.146389 -61.293781 -37.446934 -4.416589 17.122925 14.066012 11.962316 17.168806 4.754607 0.109226 -0.002676 -26.742599 33.961491 -56.477692 86.372543 -5.316175 -22.720608 15.480554 -27.652510 -37.505424 24.427410 -23.195648 -64.790733 7.358021 33.610924 -6.157576 70.293724 64.967583 -65.061523 34.233677 -10.937036 -7.729411 40.946228 2.282915 2.635279 34.874531 -1.045956 -1.385954 
63.171074 45.355255 -345.746674 -20.715044 4.934257 -1.872599 29.950424 -6.905373 -0.930040 -20.839844 0.000000 0.000000 -9.979076 7.768118 -3.986800 -2.520846 -1.255050 0.218350 -4.754607 -0.109226 -0.002657 74.167717 -13.320560 -59.133511 -36.631111 -8.641407 25.482203 14.082909 9.804456 20.451546 4.754607 0.109226 -0.002676 -25.503551 31.078051 -51.851864 85.244339 -1.530576 -15.886934 15.169902 -25.439991 -27.409498 23.601063 -25.107431 -49.876316 9.856514 28.352430 1.690570 23.879486 54.627903 -24.243195 22.650513 -12.243821 -6.570725 53.252586 0.339552 2.252836 24.457998 -4.413699 -6.988710 
63.320320 46.056885 -343.233673 -20.770569 4.831910 0.524424 31.663261 -5.383119 -1.803602 -20.839844 0.000000 0.000000 -11.324743 7.439127 -4.647519 -2.520846 -1.255050 0.218350 -4.754607 -0.109226 -0.002657 73.422577 -18.991264 -59.530087 -35.813831 -12.353098 32.337891 11.856967 8.151299 22.399639 4.754607 0.109226 -0.002676 -26.134346 26.543097 -47.373497 82.578613 2.425002 -5.612736 12.574657 -21.288374 -11.806839 28.741976 -20.372993 -51.554169 2.636304 25.310961 -3.136416 20.045273 57.753674 -21.028725 11.711872 -11.761990 -3.735243 59.217575 -1.642565 0.999597 17.765280 -7.550539 -10.641334 
63.467567 46.828552 -340.813049 -20.786398 4.712598 3.702431 32.768440 -3.843197 -2.504793 -20.839844 0.000000 0.000000 -12.129833 6.902260 -5.879036 -2.520846 -1.255050 0.218350 -4.754607 -0.109226 -0.002657 72.823151 -25.547855 -62.609844 -36.671577 -14.801268 32.565502 7.754233 8.455483 18.970137 4.754607 0.109226 -0.002676 -27.089632 21.948923 -44.939423 76.435188 3.111290 10.552917 12.243843 -12.606234 12.717802 32.323166 -13.438146 -55.995445 -5.111293 18.862177 -11.664783 21.334438 67.463463 -20.294113 2.566676 -10.502930 -0.961618 59.500729 -3.106898 -0.986006 12.163116 -11.122087 -11.604527 
63.610725 47.550980 -338.514771 -20.164959 4.905976 7.830801 32.862152 -2.511662 -4.009278 -20.839844 0.000000 0.000000 -12.686427 6.621682 -7.863472 -2.520846 -1.255050 0.218350 -4.754607 -0.109226 -0.002657 73.461784 -30.350134 -67.490097 -38.866528 -15.462333 25.298180 2.808952 9.803166 9.211286 4.754607 0.109226 -0.002676 -31.994024 17.639801 -46.966187 67.308846 0.008809 27.563885 13.173516 -0.087488 40.823811 29.402752 -10.499445 -57.522072 -0.640078 8.247895 -15.929849 5.175083 73.305527 -3.892200 -4.587156 -9.740787 0.778403 54.292614 -3.640576 -2.458080 9.895962 -14.330220 -11.898152 
63.732048 48.034302 -336.285553 -18.876156 5.093042 12.031784 32.630188 -1.690058 -5.883346 -20.839844 0.000000 0.000000 -13.550050 6.567356 -10.047469 -2.520846 -1.255050 0.218350 -4.754607 -0.109226 -0.002657 75.390610 -33.177185 -74.143127 -40.259869 -13.518773 13.289305 -4.633018 10.908062 -4.496282 4.754607 0.109226 -0.002676 -37.619427 13.449350 -48.599224 63.704937 -1.810756 33.687092 10.705675 6.610123 52.022179 27.552511 -10.374307 -50.771950 5.528499 4.387578 -13.882490 -7.035682 62.323296 8.764813 -9.548661 -9.841828 1.709443 43.966244 -3.180422 -2.714102 13.071041 -16.422218 -9.602942 
63.789406 48.083023 -333.979156 -17.243420 5.280349 15.512927 32.509842 -1.275174 -7.413722 -20.839844 0.000000 0.000000 -15.050358 6.494050 -12.454952 -2.520846 -1.255050 0.218350 -4.754607 -0.109226 -0.002657 76.916344 -34.512951 -80.329102 -38.278595 -9.679966 1.225870 -14.845662 10.652685 -17.785118 4.754607 0.109226 -0.002676 -41.786427 8.932575 -48.710033 61.962132 -2.930813 32.857491 5.130960 12.032048 51.764336 30.940578 -11.388636 -39.148827 5.003705 11.483406 -7.451396 -4.382880 42.386963 6.747619 -11.775678 -10.721243 1.226637 28.690725 -2.162803 -2.575065 22.542027 -16.480190 -5.283758 
63.788918 47.681976 -331.450409 -14.998993 5.746024 18.317806 31.663317 -1.589209 -8.621563 -20.839844 0.000000 0.000000 -16.500473 6.149077 -14.606489 -2.520846 -1.255050 0.218350 -4.754607 -0.109226 -0.002657 78.724205 -35.397923 -86.253242 -32.186714 -5.751778 -8.563304 -24.391415 9.994754 -27.978765 4.754607 0.109226 -0.002676 -44.827915 5.149056 -50.277878 59.749798 -6.300773 29.900513 2.467870 19.217932 50.634243 32.771126 -10.410768 -34.167870 2.864529 12.387211 -5.985629 -5.440915 33.553810 10.288939 -9.313518 -12.485796 -3.639487 5.026547 -0.273438 -4.728998 37.424145 -11.028564 -3.992467 
